<svg xmlns="http://www.w3.org/2000/svg" xmlns:xlink="http://www.w3.org/1999/xlink" width="2048" zoomAndPan="magnify" viewBox="0 0 1536 1535.999932" height="2048" preserveAspectRatio="xMidYMid meet" version="1.0"><defs><clipPath id="7f515247cd"><path d="M 373 121 L 1323.300781 121 L 1323.300781 318 L 373 318 Z M 373 121 " clip-rule="nonzero"/></clipPath><clipPath id="c9eb5cc6a5"><path d="M 212.386719 477 L 1212 477 L 1212 635 L 212.386719 635 Z M 212.386719 477 " clip-rule="nonzero"/></clipPath><clipPath id="b82630520e"><path d="M 1265 120.054688 L 1280 120.054688 L 1280 256 L 1265 256 Z M 1265 120.054688 " clip-rule="nonzero"/></clipPath></defs><g clip-path="url(#7f515247cd)"><path fill="#004e74" d="M 373.617188 155.097656 C 373.617188 155.097656 378.679688 239.835938 373.617188 262.601562 C 368.5625 285.367188 412.371094 286.628906 423.984375 290.421875 C 435.597656 294.214844 1305.300781 327.117188 1305.300781 314.089844 C 1305.300781 305.867188 1313.46875 270.1875 1318.523438 252.484375 C 1323.585938 234.773438 1328.652344 124.738281 1310.9375 122.214844 C 1293.230469 119.683594 381.203125 138.65625 373.617188 155.097656 " fill-opacity="1" fill-rule="nonzero"/></g><path fill="#000000" d="M 374.339844 271.507812 Z M 374.339844 271.507812 C 374.347656 271.507812 374.347656 271.507812 374.347656 271.519531 C 374.347656 271.507812 374.347656 271.507812 374.339844 271.507812 Z M 400.015625 275.617188 C 373.496094 275.617188 372.652344 274.976562 372.082031 274.550781 C 371.238281 273.929688 371.0625 272.738281 371.695312 271.894531 C 372.242188 271.164062 373.21875 270.9375 374.023438 271.316406 C 390.050781 275.117188 998.453125 259.429688 1318.472656 250.582031 C 1318.492188 250.582031 1318.511719 250.582031 1318.523438 250.582031 C 1319.550781 250.582031 1320.394531 251.398438 1320.425781 252.425781 C 1320.453125 253.472656 1319.632812 254.34375 1318.574219 254.375 C 1316.234375 254.4375 1081.351562 260.925781 848.605469 266.667969 C 555.8125 273.898438 443.46875 275.617188 400.015625 275.617188 " fill-opacity="1" fill-rule="nonzero"/><path fill="#ff5964" d="M 1303.980469 1209.253906 C 1303.980469 1209.253906 1309.675781 1374.296875 1288.796875 1395.160156 C 1267.929688 1416.035156 302.144531 1410.34375 281.277344 1395.160156 C 260.402344 1379.992188 262.304688 1232.019531 267.996094 1209.253906 C 273.691406 1186.488281 434.96875 1047.996094 463.433594 1042.3125 C 491.886719 1036.617188 1091.472656 1057.480469 1119.9375 1059.382812 C 1148.390625 1061.273438 1303.980469 1209.253906 1303.980469 1209.253906 " fill-opacity="1" fill-rule="nonzero"/><path fill="#000000" d="M 1303.980469 1211.148438 L 267.996094 1211.148438 C 266.949219 1211.148438 266.097656 1210.304688 266.097656 1209.253906 C 266.097656 1208.199219 266.949219 1207.355469 267.996094 1207.355469 L 1303.980469 1207.355469 C 1305.027344 1207.355469 1305.882812 1208.199219 1305.882812 1209.253906 C 1305.882812 1210.304688 1305.027344 1211.148438 1303.980469 1211.148438 " fill-opacity="1" fill-rule="nonzero"/><path fill="#feac08" d="M 264.195312 937.972656 C 264.195312 937.972656 241.433594 936.070312 239.535156 1076.457031 C 239.535156 1076.457031 237.640625 1135.265625 267.996094 1144.75 C 298.351562 1154.238281 1216.695312 1194.074219 1216.695312 1194.074219 C 1216.695312 1194.074219 1243.257812 1040.410156 1228.085938 991.085938 C 1212.902344 941.765625 1169.265625 877.261719 1169.265625 877.261719 C 1169.265625 877.261719 429.273438 863.980469 398.917969 865.882812 C 368.5625 867.773438 264.195312 937.972656 264.195312 937.972656 " fill-opacity="1" fill-rule="nonzero"/><path fill="#000000" d="M 1228.085938 989.664062 C 1196.183594 987.90625 1164.292969 986.144531 1132.402344 984.386719 C 1055.480469 980.148438 978.5625 975.90625 901.640625 971.667969 C 808.894531 966.5625 716.140625 961.449219 623.394531 956.34375 C 543.222656 951.921875 463.046875 947.5 382.871094 943.085938 C 356.429688 941.621094 330 940.167969 303.558594 938.714844 C 295.363281 938.257812 287.167969 937.808594 278.96875 937.359375 C 274.945312 937.136719 269.867188 936 265.863281 936.628906 C 265.355469 936.710938 264.714844 936.566406 264.195312 936.539062 C 262.363281 936.4375 262.363281 939.292969 264.195312 939.394531 C 296.085938 941.144531 327.976562 942.902344 359.878906 944.660156 C 436.800781 948.902344 513.710938 953.140625 590.628906 957.382812 C 683.386719 962.496094 776.128906 967.601562 868.875 972.714844 C 949.050781 977.128906 1029.226562 981.550781 1109.410156 985.960938 C 1135.839844 987.425781 1162.28125 988.882812 1188.710938 990.335938 C 1196.90625 990.792969 1205.105469 991.238281 1213.300781 991.699219 C 1217.335938 991.921875 1222.414062 993.050781 1226.410156 992.417969 C 1226.925781 992.339844 1227.558594 992.480469 1228.085938 992.511719 C 1229.917969 992.601562 1229.90625 989.765625 1228.085938 989.664062 " fill-opacity="1" fill-rule="nonzero"/><path fill="#fec501" d="M 1269.832031 795.683594 C 1269.832031 795.683594 1277.417969 924.683594 1269.832031 947.449219 C 1262.234375 970.214844 302.023438 989.613281 296.460938 964.519531 C 290.890625 939.433594 296.460938 816.546875 296.460938 763.433594 C 296.460938 710.316406 1193.929688 702.730469 1269.832031 795.683594 " fill-opacity="1" fill-rule="nonzero"/><path fill="#000000" d="M 1270.148438 803.308594 C 1270.136719 803.308594 1270.136719 803.308594 1270.136719 803.308594 L 296.042969 797.574219 C 294.996094 797.574219 294.152344 796.722656 294.164062 795.675781 C 294.164062 794.625 295.019531 793.761719 296.066406 793.78125 L 1270.15625 799.507812 C 1271.203125 799.515625 1272.050781 800.371094 1272.039062 801.417969 C 1272.039062 802.464844 1271.183594 803.308594 1270.148438 803.308594 " fill-opacity="1" fill-rule="nonzero"/><path fill="#accb6b" d="M 264.195312 626.839844 C 264.195312 626.839844 250.921875 749.839844 267.996094 773.710938 C 285.070312 797.574219 1243.257812 795.683594 1256.539062 795.683594 C 1269.832031 795.683594 1271.722656 659.089844 1256.539062 642.019531 C 1241.367188 624.949219 319.230469 609.769531 319.230469 609.769531 L 264.195312 626.839844 " fill-opacity="1" fill-rule="nonzero"/><path fill="#000000" d="M 1256.539062 643.910156 C 1256.53125 643.910156 1256.519531 643.910156 1256.519531 643.910156 L 264.164062 628.742188 C 263.117188 628.71875 262.28125 627.855469 262.292969 626.808594 C 262.3125 625.773438 263.15625 624.949219 264.195312 624.949219 C 264.203125 624.949219 264.214844 624.949219 264.226562 624.949219 L 1256.570312 640.117188 C 1257.617188 640.140625 1258.460938 641.003906 1258.441406 642.050781 C 1258.421875 643.085938 1257.578125 643.910156 1256.539062 643.910156 " fill-opacity="1" fill-rule="nonzero"/><path fill="#587a89" d="M 317.949219 280.933594 C 317.949219 280.933594 313.171875 377.375 318.101562 383.070312 C 323.023438 388.753906 366.660156 401.339844 399.863281 402.640625 C 433.066406 403.933594 1259.386719 425.753906 1266.972656 422.90625 C 1274.570312 420.058594 1288.796875 404.878906 1291.644531 388.753906 C 1294.492188 372.625 1303.035156 282.835938 1291.644531 280.945312 C 1280.265625 279.042969 317.949219 280.933594 317.949219 280.933594 " fill-opacity="1" fill-rule="nonzero"/><path fill="#000000" d="M 1291.644531 390.652344 C 1291.644531 390.652344 1291.636719 390.652344 1291.636719 390.652344 L 318.082031 384.960938 C 317.035156 384.960938 316.191406 384.105469 316.199219 383.046875 C 316.210938 382.011719 317.054688 381.167969 318.101562 381.167969 C 318.101562 381.167969 318.101562 381.167969 318.113281 381.167969 L 1291.65625 386.863281 C 1292.703125 386.863281 1293.546875 387.714844 1293.546875 388.773438 C 1293.535156 389.808594 1292.691406 390.652344 1291.644531 390.652344 " fill-opacity="1" fill-rule="nonzero"/><path fill="#83cbb8" d="M 1241.539062 401.1875 C 1241.539062 401.1875 1254.425781 493.613281 1233.558594 495.605469 C 1218.285156 497.070312 246.804688 486.109375 246.804688 478.765625 C 246.804688 452.828125 250.597656 398.453125 261.988281 390.683594 C 273.367188 382.90625 1241.539062 401.1875 1241.539062 401.1875 " fill-opacity="1" fill-rule="nonzero"/><g clip-path="url(#c9eb5cc6a5)"><path fill="#63dcd5" d="M 1207.707031 496.152344 C 1207.707031 496.152344 1220.59375 631.507812 1199.722656 634.433594 C 1184.449219 636.570312 212.972656 620.515625 212.972656 609.769531 C 212.972656 571.78125 216.765625 492.148438 228.152344 480.769531 C 239.535156 469.382812 1207.707031 496.152344 1207.707031 496.152344 " fill-opacity="1" fill-rule="nonzero"/></g><g clip-path="url(#b82630520e)"><path fill="#000000" d="M 1267.230469 255.78125 C 1266.953125 255.78125 1266.679688 255.71875 1266.414062 255.597656 C 1265.46875 255.148438 1265.0625 254.019531 1265.519531 253.074219 C 1287.660156 206.324219 1265.621094 123.539062 1265.398438 122.714844 C 1265.125 121.699219 1265.722656 120.652344 1266.730469 120.375 C 1267.746094 120.113281 1268.785156 120.703125 1269.058594 121.707031 C 1269.996094 125.164062 1291.6875 206.691406 1268.945312 254.703125 C 1268.621094 255.382812 1267.941406 255.78125 1267.230469 255.78125 " fill-opacity="1" fill-rule="nonzero"/></g><path fill="#000000" d="M 410.980469 275.617188 C 410.835938 275.617188 410.703125 275.605469 410.570312 275.574219 C 409.546875 275.351562 408.894531 274.34375 409.117188 273.320312 C 424.046875 204.820312 409.289062 150.277344 409.148438 149.730469 C 408.863281 148.722656 409.453125 147.675781 410.460938 147.390625 C 411.476562 147.117188 412.523438 147.707031 412.800781 148.714844 C 412.953125 149.261719 427.972656 204.65625 412.828125 274.132812 C 412.636719 275.015625 411.84375 275.617188 410.980469 275.617188 " fill-opacity="1" fill-rule="nonzero"/><path fill="#8ea558" d="M 1227.425781 675.402344 C 1227.425781 675.402344 1227.425781 675.402344 1227.4375 675.402344 Z M 297.824219 752.613281 L 297.835938 752.613281 Z M 297.621094 752.054688 C 310.199219 756.304688 504.160156 763.003906 762.136719 768.078125 C 1023.0625 773.203125 1218.640625 774.199219 1227.171875 770.4375 C 1228.523438 769.625 1230.515625 767.226562 1231.980469 760.585938 C 1237.269531 736.519531 1229.824219 681.847656 1226.886719 675.308594 C 1203.210938 672.105469 609.902344 660.882812 295.222656 655.320312 C 289.324219 671.058594 293.980469 740.820312 297.621094 752.054688 Z M 1130.53125 776.46875 C 1030.253906 776.46875 874.945312 774.066406 768.054688 771.984375 C 544.460938 767.632812 311.847656 760.871094 296.21875 755.5625 C 295.515625 755.328125 294.660156 754.933594 294.296875 754.015625 C 290.042969 743.351562 285.246094 666.757812 292.28125 652.5625 L 292.820312 651.484375 L 294.019531 651.507812 C 296.339844 651.546875 529.257812 655.664062 759.644531 660.199219 C 1226.511719 669.382812 1228.257812 671.140625 1229.417969 672.300781 C 1233.171875 676.039062 1240.117188 727.976562 1236.71875 755.1875 C 1235.460938 765.332031 1232.957031 771.402344 1229.054688 773.722656 C 1225.71875 775.714844 1186.777344 776.46875 1130.53125 776.46875 " fill-opacity="1" fill-rule="nonzero"/><path fill="#000000" d="M 264.183594 616.398438 C 263.25 616.398438 262.433594 615.695312 262.3125 614.738281 C 249.714844 518.117188 272.96875 478.59375 273.96875 476.957031 C 274.515625 476.0625 275.675781 475.789062 276.570312 476.328125 C 277.464844 476.867188 277.75 478.035156 277.210938 478.929688 C 276.96875 479.328125 253.667969 519.152344 266.074219 614.25 C 266.207031 615.289062 265.476562 616.246094 264.4375 616.375 C 264.355469 616.386719 264.277344 616.398438 264.183594 616.398438 " fill-opacity="1" fill-rule="nonzero"/><path fill="#000000" d="M 303.976562 616.398438 C 303.386719 616.398438 302.808594 616.121094 302.441406 615.605469 C 278.714844 582.679688 305.492188 481.734375 306.640625 477.457031 C 306.914062 476.4375 307.953125 475.847656 308.96875 476.113281 C 309.976562 476.386719 310.578125 477.425781 310.3125 478.441406 C 310.027344 479.46875 282.835938 581.917969 305.511719 613.386719 C 306.132812 614.242188 305.941406 615.429688 305.085938 616.042969 C 304.75 616.273438 304.363281 616.398438 303.976562 616.398438 " fill-opacity="1" fill-rule="nonzero"/><path fill="#000000" d="M 1145.855469 636.519531 C 1145.472656 636.519531 1145.085938 636.40625 1144.75 636.164062 C 1143.90625 635.542969 1143.710938 634.351562 1144.332031 633.507812 C 1169.113281 599.347656 1150.433594 496.03125 1150.242188 494.996094 C 1150.046875 493.96875 1150.726562 492.972656 1151.753906 492.789062 C 1152.8125 492.59375 1153.777344 493.277344 1153.972656 494.304688 C 1154.765625 498.613281 1173.132812 600.269531 1147.402344 635.734375 C 1147.027344 636.253906 1146.445312 636.519531 1145.855469 636.519531 " fill-opacity="1" fill-rule="nonzero"/><path fill="#000000" d="M 1102.851562 636.519531 C 1102.496094 636.519531 1102.128906 636.417969 1101.804688 636.203125 C 1100.929688 635.625 1100.695312 634.445312 1101.273438 633.570312 C 1123.351562 600.332031 1107.417969 494.863281 1107.253906 493.804688 C 1107.089844 492.769531 1107.804688 491.800781 1108.839844 491.640625 C 1109.878906 491.488281 1110.84375 492.1875 1111.007812 493.226562 C 1111.679688 497.617188 1127.328125 601.21875 1104.4375 635.675781 C 1104.070312 636.222656 1103.472656 636.519531 1102.851562 636.519531 " fill-opacity="1" fill-rule="nonzero"/><path fill="#ed9700" d="M 1164.84375 1166.246094 C 1164.804688 1166.246094 1164.761719 1166.246094 1164.722656 1166.246094 L 284.320312 1111.871094 C 283.28125 1111.796875 282.480469 1110.894531 282.550781 1109.855469 C 282.609375 1108.808594 283.535156 1108.035156 284.554688 1108.078125 L 1164.957031 1162.453125 C 1166.003906 1162.523438 1166.796875 1163.417969 1166.726562 1164.46875 C 1166.675781 1165.472656 1165.828125 1166.246094 1164.84375 1166.246094 " fill-opacity="1" fill-rule="nonzero"/><path fill="#ed9700" d="M 1169.898438 1031.777344 C 1169.855469 1031.777344 1169.828125 1031.777344 1169.785156 1031.777344 L 290.429688 978.203125 C 289.382812 978.144531 288.582031 977.238281 288.652344 976.191406 C 288.710938 975.144531 289.617188 974.382812 290.65625 974.414062 L 1170.007812 1027.984375 C 1171.058594 1028.046875 1171.851562 1028.953125 1171.789062 1030 C 1171.726562 1031.003906 1170.894531 1031.777344 1169.898438 1031.777344 " fill-opacity="1" fill-rule="nonzero"/><path fill="#000000" d="M 317.410156 1401.546875 C 316.636719 1401.546875 315.914062 1401.070312 315.632812 1400.308594 C 288.03125 1326.144531 303.90625 1210.152344 304.070312 1208.980469 C 304.210938 1207.953125 305.167969 1207.222656 306.214844 1207.375 C 307.25 1207.515625 307.964844 1208.484375 307.820312 1209.511719 C 307.660156 1210.667969 291.925781 1325.726562 319.179688 1398.984375 C 319.554688 1399.960938 319.046875 1401.058594 318.070312 1401.425781 C 317.847656 1401.507812 317.625 1401.546875 317.410156 1401.546875 " fill-opacity="1" fill-rule="nonzero"/><path fill="#000000" d="M 1253.386719 1401.546875 C 1253.277344 1401.546875 1253.164062 1401.535156 1253.050781 1401.515625 C 1252.023438 1401.332031 1251.332031 1400.347656 1251.515625 1399.320312 C 1263.996094 1328.257812 1265.316406 1210.414062 1265.328125 1209.234375 C 1265.347656 1208.1875 1266.191406 1207.355469 1267.230469 1207.355469 C 1267.238281 1207.355469 1267.25 1207.355469 1267.25 1207.355469 C 1268.296875 1207.363281 1269.140625 1208.230469 1269.128906 1209.265625 C 1269.109375 1210.457031 1267.789062 1328.613281 1255.25 1399.972656 C 1255.085938 1400.898438 1254.28125 1401.546875 1253.386719 1401.546875 " fill-opacity="1" fill-rule="nonzero"/><path fill="#005b7f" d="M 443.824219 169.007812 C 443.824219 169.007812 438.761719 250.226562 443.824219 253.878906 C 448.878906 257.539062 1253.378906 244.890625 1256.539062 230.980469 C 1259.703125 217.070312 1264.769531 148.773438 1256.539062 142.449219 C 1248.324219 136.125 443.824219 169.007812 443.824219 169.007812 " fill-opacity="1" fill-rule="nonzero"/><path fill="#ff7381" d="M 340.097656 1232.652344 C 340.097656 1232.652344 324.914062 1369.234375 348.957031 1383.152344 C 372.984375 1397.0625 1216.695312 1385.6875 1228.085938 1376.828125 C 1239.464844 1367.972656 1241.246094 1242.769531 1232.765625 1237.703125 C 1224.292969 1232.652344 340.097656 1232.652344 340.097656 1232.652344 " fill-opacity="1" fill-rule="nonzero"/><path fill="#91dbc6" d="M 284.929688 403.046875 C 284.929688 403.046875 273.132812 460.445312 284.523438 462.9375 C 295.921875 465.417969 1211.804688 480.34375 1218.109375 476.183594 C 1224.414062 472.027344 1228.003906 418.890625 1217.886719 416.398438 C 1207.746094 413.90625 330.4375 393.511719 284.929688 403.046875 " fill-opacity="1" fill-rule="nonzero"/><path fill="#ed9700" d="M 1168.777344 1052.03125 Z M 286.070312 993.089844 C 279.691406 1037.359375 277.394531 1085.261719 284.777344 1086.601562 C 291.734375 1087.863281 510.425781 1106.011719 721.804688 1121.609375 C 1108.667969 1150.160156 1159.648438 1147.628906 1163.601562 1145.210938 C 1176.171875 1132.621094 1173.210938 1059.171875 1168.953125 1052.265625 C 1145.054688 1048.6875 329.644531 995.917969 286.070312 993.089844 Z M 1141.167969 1150.34375 C 1101.835938 1150.34375 998.738281 1145.828125 724.5 1125.617188 C 507.160156 1109.59375 291.398438 1091.667969 284.105469 1090.335938 C 279.277344 1089.460938 274.140625 1082.800781 277.332031 1038.691406 C 279.050781 1014.871094 282.53125 991.046875 282.558594 990.8125 L 282.816406 989.085938 L 284.5625 989.195312 C 431.644531 998.703125 1165.605469 1046.257812 1170.742188 1048.828125 C 1171.808594 1049.359375 1173.03125 1050.546875 1174.238281 1057.96875 C 1177.179688 1076.097656 1178.96875 1135.195312 1166.175781 1147.984375 C 1165.320312 1148.847656 1163.828125 1150.34375 1141.167969 1150.34375 " fill-opacity="1" fill-rule="nonzero"/><path fill="#ffdc7b" d="M 360.242188 835.417969 C 359.0625 859.394531 358.007812 917.566406 366.089844 926.085938 C 366.722656 926.757812 367.148438 926.757812 367.292969 926.757812 C 369.03125 926.757812 579.394531 926.195312 792.105469 923.148438 C 1154.105469 917.941406 1215.304688 909.949219 1219.554688 905.660156 C 1230.457031 886.960938 1225.433594 839.464844 1219.625 827.488281 C 1199.5625 818.753906 650.558594 828.820312 360.242188 835.417969 Z M 367.292969 930.546875 C 365.835938 930.546875 364.496094 929.929688 363.335938 928.699219 C 352.421875 917.1875 356.09375 842 356.542969 833.46875 L 356.632812 831.707031 L 358.394531 831.667969 C 360.539062 831.617188 574.949219 826.757812 787.378906 823.441406 C 1218.324219 816.722656 1221.355469 822.566406 1222.808594 825.375 C 1229.132812 837.566406 1234.636719 887.335938 1222.769531 907.660156 C 1220.664062 911.261719 1215.089844 920.808594 795.1875 926.886719 C 581.527344 929.988281 369.050781 930.546875 367.292969 930.546875 " fill-opacity="1" fill-rule="nonzero"/><path fill="#000000" d="M 346.738281 384.960938 C 345.691406 384.960938 344.835938 384.117188 344.835938 383.070312 L 344.835938 280.882812 C 344.835938 279.835938 345.691406 278.992188 346.738281 278.992188 C 347.785156 278.992188 348.628906 279.835938 348.628906 280.882812 L 348.628906 383.070312 C 348.628906 384.117188 347.785156 384.960938 346.738281 384.960938 " fill-opacity="1" fill-rule="nonzero"/><path fill="#000000" d="M 373.210938 384.960938 C 372.164062 384.960938 371.320312 384.117188 371.320312 383.070312 L 371.320312 280.882812 C 371.320312 279.835938 372.164062 278.992188 373.210938 278.992188 C 374.257812 278.992188 375.113281 279.835938 375.113281 280.882812 L 375.113281 383.070312 C 375.113281 384.117188 374.257812 384.960938 373.210938 384.960938 " fill-opacity="1" fill-rule="nonzero"/><path fill="#000000" d="M 399.863281 384.960938 C 398.816406 384.960938 397.972656 384.117188 397.972656 383.070312 L 397.972656 280.78125 C 397.972656 279.734375 398.816406 278.890625 399.863281 278.890625 C 400.910156 278.890625 401.765625 279.734375 401.765625 280.78125 L 401.765625 383.070312 C 401.765625 384.117188 400.910156 384.960938 399.863281 384.960938 " fill-opacity="1" fill-rule="nonzero"/><path fill="#000000" d="M 1261.003906 390.652344 C 1259.957031 390.652344 1259.113281 389.800781 1259.113281 388.753906 L 1259.113281 280.882812 C 1259.113281 279.835938 1259.957031 278.992188 1261.003906 278.992188 C 1262.050781 278.992188 1262.90625 279.835938 1262.90625 280.882812 L 1262.90625 388.753906 C 1262.90625 389.800781 1262.050781 390.652344 1261.003906 390.652344 " fill-opacity="1" fill-rule="nonzero"/><path fill="#000000" d="M 1230.925781 390.652344 C 1229.875 390.652344 1229.03125 389.800781 1229.03125 388.753906 L 1229.03125 280.089844 C 1229.03125 279.042969 1229.875 278.199219 1230.925781 278.199219 C 1231.980469 278.199219 1232.824219 279.042969 1232.824219 280.089844 L 1232.824219 388.753906 C 1232.824219 389.800781 1231.980469 390.652344 1230.925781 390.652344 " fill-opacity="1" fill-rule="nonzero"/><path fill="#000000" d="M 1200.570312 387.808594 C 1199.519531 387.808594 1198.675781 386.953125 1198.675781 385.90625 L 1198.675781 280.78125 C 1198.675781 279.734375 1199.519531 278.890625 1200.570312 278.890625 C 1201.617188 278.890625 1202.46875 279.734375 1202.46875 280.78125 L 1202.46875 385.90625 C 1202.46875 386.953125 1201.617188 387.808594 1200.570312 387.808594 " fill-opacity="1" fill-rule="nonzero"/></svg>