<?xml version="1.0" standalone="yes"?>
<svg xmlns="http://www.w3.org/2000/svg" width="1536" height="1536">
<path style="fill:#ecbb0b; stroke:none;" d="M0 0L0 1536L1536 1536L1536 0L0 0z"/>
<path style="fill:#2e2b24; stroke:none;" d="M462 425C462 560.231 461 695.681 461 831C461 862.362 461.219 893.712 461.985 925C462.221 934.637 461.431 944.381 462.09 954C463.953 981.217 470.507 1009.06 483.862 1033C490.902 1045.62 499.23 1057.41 509.09 1068C519.006 1078.65 529.749 1088.42 542 1096.31C587.618 1125.69 640.871 1125 693 1125L803 1125L865 1125C894.369 1125 921.979 1124.27 950 1114.31C989.928 1100.11 1024.11 1071.68 1045.57 1035C1055.9 1017.36 1064.07 997.939 1068.76 978C1074.3 954.48 1074 929.997 1074 906L1074 823C1074 690.28 1073 557.68 1073 425L544 425L543 473L795 473C795 574.717 796 676.342 796 778C796 831.699 801.178 893.449 773.588 942C749.981 983.542 710.307 1014.31 663 1024C645.537 1027.58 626.84 1030.88 609 1031C603.792 1031.04 592.821 1028.78 591 1035C617.17 1037.07 643.721 1036 670 1036L799 1036C833.766 1036 875.062 1037.22 903.985 1014.57C953.784 975.571 949 909.589 949 853C949 726.297 947 599.627 947 473L1035 472L1035 686C1035 721.887 1033.47 758.151 1035.04 794C1036.34 823.607 1036 853.316 1036 883C1036 927.693 1034.95 972.025 1012.13 1012C993.808 1044.09 965.305 1065.51 930 1075.57C893.196 1086.06 853.737 1082 816 1082L697 1082C653.408 1082 607.617 1084.16 568 1062.69C558.158 1057.36 549.244 1050.37 541.004 1042.83C533.396 1035.87 526.498 1026.76 521.066 1018C501.233 986.034 500 948.372 500 912L500 830C500 694.961 499 560.06 499 425L462 425M881.667 1028.33C881.222 1028.78 882.278 1028.72 882.333 1028.67C882.778 1028.22 881.722 1028.28 881.667 1028.33M878.667 1029.33C878.223 1029.78 879.278 1029.72 879.333 1029.67C879.778 1029.22 878.722 1029.28 878.667 1029.33M867 1032C868.506 1032.68 869.315 1032.83 871 1033C869.494 1032.32 868.685 1032.17 867 1032M948 1116C950.851 1116.84 953.183 1115.89 956 1115C953.149 1114.16 950.817 1115.11 948 1116M932 1121C934.164 1121.68 935.732 1121.39 938 1121C935.836 1120.32 934.268 1120.61 932 1121M928 1122C929.248 1122.68 929.548 1122.75 931 1123C929.752 1122.32 929.451 1122.25 928 1122M917 1124C920.047 1125.24 922.807 1124.59 926 1124C923.056 1122.94 920.107 1123.76 917 1124z"/>
</svg>
